# xmcd CD database file
#
# Track frame offsets:
#	150
#	22389
#	46673
#	70432
#	93262
#	111565
#	135888
#	159909
#	180271
#	198811
#	221475
#	248351
#
# Disc length: 3639 seconds
#
# Revision: 1
# Processed by: cddbd v1.5.1PL0 Copyright (c) Steve Scherf et al.
# Submitted via: CDex 1.51
#
DISCID=960e350c
DTITLE=KOBUKURO - MUSIC MAN SHIP
DYEAR=2004
DGENRE=JPop
TTITLE0=TOKYO NO FUYU
TTITLE1=Million Films
TTITLE2=BOYS ON THE RUN
TTITLE3=TOWA NI TOMO NI
TTITLE4=Rising
TTITLE5=HIKARI NO TIKAI GA KIKOETA HI
TTITLE6=DOOR
TTITLE7=epilogue
TTITLE8=HUMMING LIFE
TTITLE9=KONO YUBI TOMARE!!
TTITLE10=KOKOKARA -Album version-
TTITLE11=MAIASA BOKUNO YOKO NI ITE -Sweet drip mix-
EXTD=YEAR: 2004
EXTT0=
EXTT1=
EXTT2=
EXTT3=
EXTT4=
EXTT5=
EXTT6=
EXTT7=
EXTT8=
EXTT9=
EXTT10=
EXTT11=
PLAYORDER=
